<svg version="1.0" xmlns="http://www.w3.org/2000/svg"
 width="384.000000pt" height="240.000000pt" viewBox="0 0 384.000000 240.000000"
 preserveAspectRatio="xMidYMid meet">
<metadata>
Created by potrace 1.15, written by Peter Selinger 2001-2017
</metadata>
<g transform="translate(0.000000,240.000000) scale(0.100000,-0.100000)"
fill="#000000" stroke="none">
<path d="M527 1794 c-31 -7 -70 -20 -85 -27 -15 -8 -43 -12 -62 -10 -44 5 -72
-14 -74 -53 0 -16 -13 -45 -28 -64 -78 -102 -106 -243 -74 -370 51 -202 200
-375 420 -486 91 -46 101 -54 107 -84 10 -48 40 -83 91 -104 77 -32 162 3 194
79 11 27 20 33 85 48 139 34 239 109 296 225 37 75 38 78 38 191 0 105 -3 123
-29 186 -36 87 -84 163 -140 223 -24 26 -46 58 -47 72 -3 20 -10 26 -38 28
-19 2 -54 17 -78 34 -156 107 -401 155 -576 112z m339 -25 c125 -32 284 -116
284 -149 0 -22 20 -40 46 -40 50 0 180 -203 205 -319 18 -87 7 -206 -25 -269
-62 -121 -170 -200 -308 -226 -35 -6 -38 -5 -51 27 -18 42 -57 74 -109 88 -52
14 -103 -3 -145 -49 l-32 -35 -48 18 c-141 54 -309 201 -376 331 -87 168 -90
327 -8 456 23 37 34 45 50 41 30 -8 69 22 79 59 8 30 15 35 88 60 102 36 231
38 350 7z"/>
<path d="M663 1666 c-89 -28 -144 -82 -173 -170 -30 -93 20 -234 119 -334 142
-142 348 -190 505 -119 32 15 67 27 76 27 29 0 50 28 51 68 7 182 5 206 -29
274 -38 78 -130 169 -212 210 -110 55 -245 72 -337 44z m228 -22 c134 -40 244
-126 296 -232 43 -88 45 -232 3 -232 -27 0 -60 -35 -60 -63 0 -33 -58 -59
-146 -65 -218 -14 -440 160 -461 362 -11 103 61 204 168 234 53 16 140 14 200
-4z"/>
<path d="M773 1535 c-40 -17 -66 -57 -69 -104 -1 -20 -5 -48 -9 -63 -11 -43 1
-74 35 -88 16 -7 36 -10 43 -7 8 3 27 -3 43 -14 16 -10 52 -23 81 -29 139 -29
221 65 162 187 -49 101 -191 160 -286 118z m176 -36 c91 -55 126 -149 78 -205
-20 -23 -34 -28 -83 -31 -43 -3 -68 1 -94 14 -32 16 -35 22 -32 55 4 41 -24
78 -58 78 -33 0 -27 53 11 84 40 34 126 37 178 5z"/>
</g>
</svg>
